<?xml version="1.0" standalone="no"?>
<!DOCTYPE svg PUBLIC "-//W3C//DTD SVG 20010904//EN"
 "http://www.w3.org/TR/2001/REC-SVG-20010904/DTD/svg10.dtd">
<svg version="1.0" xmlns="http://www.w3.org/2000/svg"
 width="46.000000pt" height="46.000000pt" viewBox="0 0 46.000000 46.000000"
 preserveAspectRatio="xMidYMid meet">

<g transform="translate(0.000000,46.000000) scale(0.100000,-0.100000)"
fill="#000000" stroke="none">
<path d="M64 450 c-53 -17 -58 -30 -62 -176 -5 -155 2 -214 27 -246 17 -21 28
-23 155 -26 157 -5 216 2 248 27 21 17 23 28 26 155 5 157 -2 216 -28 248 -17
22 -25 23 -177 25 -87 1 -172 -2 -189 -7z m74 -72 c17 -17 15 -43 -4 -59 -31
-26 -70 25 -44 56 15 18 32 19 48 3z m10 -195 l-3 -108 -32 -3 -33 -3 0 110 0
111 35 0 36 0 -3 -107z m102 95 c0 -9 3 -9 12 0 19 19 76 14 98 -8 17 -17 20
-33 20 -110 l0 -90 -30 0 -30 0 0 63 c0 73 -15 103 -48 93 -19 -6 -21 -16 -24
-79 l-3 -72 -32 -3 -33 -3 0 110 0 111 35 0 c21 0 35 -5 35 -12z"/>
</g>
</svg>
